<?xml version="1.0" encoding="utf-8"?>
<!-- Generator: Adobe Illustrator 24.1.0, SVG Export Plug-In . SVG Version: 6.00 Build 0)  -->
<svg version="1.1" id="Capa_1" xmlns="http://www.w3.org/2000/svg" xmlns:xlink="http://www.w3.org/1999/xlink" x="0px" y="0px"
	 viewBox="0 0 479.04 276.16" style="enable-background:new 0 0 479.04 276.16;" xml:space="preserve">
<style type="text/css">
	.st0{fill:#1C0CCF;}
	.st1{fill:#FFFFFF;}
	.st2{fill:none;stroke:url(#);stroke-width:2;stroke-miterlimit:10;}
	.st3{clip-path:url(#XMLID_27_);}
	.st4{clip-path:url(#XMLID_29_);}
	.st5{clip-path:url(#XMLID_31_);}
	.st6{clip-path:url(#XMLID_32_);}
	.st7{fill:url(#);}
	.st8{fill:#6FFDEA;}
	.st9{fill:#FF00F3;}
	.st10{fill:#1D1D1D;}
	.st11{fill:#1D1D1B;}
	.st12{fill:#EB00FF;}
	.st13{fill:#1AFFD7;}
	.st14{fill:#1B0CCF;}
	.st15{opacity:0.33;clip-path:url(#XMLID_35_);}
	.st16{opacity:0.33;clip-path:url(#XMLID_37_);}
	.st17{fill:#4D0094;}
	.st18{fill:#FFEF3B;}
	.st19{fill:#FB1700;}
	.st20{opacity:0.5;fill:#1D1D1B;}
	.st21{opacity:0.3;fill:#1D1D1B;}
	.st22{opacity:0.7;fill:#1D1D1B;}
	.st23{opacity:0.5;fill:#FFFFFF;}
	.st24{opacity:0.3;fill:#FFFFFF;}
	.st25{opacity:0.7;fill:#FFFFFF;}
</style>
<g>
	<path class="st0" d="M424.74,152.32v-3.29c30.67-7.46,46.53-24.77,46.53-49.37c0-27.46-15.9-45.89-42.29-55.74v-3.11
		c33-0.86,41.39-6.13,41.39-38.85V0h-47.71v2.27c0,28.24-10.72,33.07-39.57,33.22h-0.75c-52.4,0-88.19,23.41-88.19,64.78
		c0,22.32,13.04,41.65,47.63,49.34v3.01c-30.54,6.14-56.02,21.5-56.02,55.38c0,43.72,38.84,68.17,96.99,68.17
		c57.46,0,96.3-24.09,96.3-66.86C479.04,174.43,451.88,158.34,424.74,152.32z M382.93,76.56c25.52,0,37.9,9.06,37.9,28.09
		c0,19.02-12.38,28.08-38.5,28.08c-25.37,0-37.45-9.06-37.45-28.08C344.88,85.62,357.26,76.56,382.93,76.56z M382.31,233.33
		c-28.39,0-41.98-9.65-41.98-30.07c0-21.15,13.59-30.8,41.73-30.8c28.07,0,41.67,10.13,41.67,31.12
		C423.72,224,410.13,233.33,382.31,233.33z"/>
	<polygon class="st0" points="138.58,231.7 134.3,231.7 79.29,39.36 0,39.36 0,273.48 50.4,273.48 49.25,95.01 53.26,95.01 
		107.41,273.48 167.14,273.48 221.29,95.01 225.3,95.01 224.15,273.48 274.55,273.48 274.55,39.36 195.26,39.36 	"/>
</g>
</svg>
